<?xml version="1.0" standalone="no"?><!DOCTYPE svg PUBLIC "-//W3C//DTD SVG 1.1//EN" "http://www.w3.org/Graphics/SVG/1.1/DTD/svg11.dtd"><svg t="1499502711975" class="icon" style="" viewBox="0 0 1024 1024" version="1.1" xmlns="http://www.w3.org/2000/svg" p-id="1445" xmlns:xlink="http://www.w3.org/1999/xlink" width="200" height="200"><defs><style type="text/css"></style></defs><path d="M875.808 148.16c-111.04-111.04-291.072-111.04-402.192 0-87.52 87.536-105.76 217.808-55.328 323.488L64.88 825.056l6.592 127.488 127.472 6.576 140.64-140.64c0 0-67.024-67.04-44.704-89.392 22.336-22.336 89.376 44.688 89.376 44.688l-44.672 44.704 134.048-134.064-44.688 44.672c0 0-67.024-67.04-44.688-89.392 22.336-22.336 89.376 44.72 89.376 44.72l78.752-78.72c105.68 50.4 235.936 32.16 323.44-55.344C986.896 439.296 986.896 259.232 875.808 148.16zM294.88 863.152l-44.688 44.688c0 0-67.024-67.024-44.672-89.36C227.856 796.16 294.88 863.152 294.88 863.152zM741.776 416.304c-37.04 37.008-97.04 37.008-134.064 0-37.008-37.04-37.008-97.04 0-134.064 37.008-37.024 97.008-37.024 134.064 0C778.8 319.248 778.8 379.248 741.776 416.304z" p-id="1446" class="selected" fill="#d81e06"></path></svg>